<svg width="64" height="33" viewBox="0 0 64 33" fill="none" xmlns="http://www.w3.org/2000/svg">
<path d="M0 0H64V24.3784H10.3704L0 33L0 24.3784V0Z" fill="#4965AD"/>
<path d="M19.8046 16.11C18.9979 16.11 18.3049 15.9487 17.7256 15.626C17.1536 15.296 16.7136 14.834 16.4056 14.24C16.0976 13.6387 15.9436 12.931 15.9436 12.117C15.9436 11.303 16.0976 10.599 16.4056 10.005C16.7136 9.411 17.1536 8.95267 17.7256 8.63C18.3049 8.3 18.9979 8.135 19.8046 8.135C20.3253 8.135 20.8166 8.21567 21.2786 8.377C21.7479 8.53833 22.1329 8.76933 22.4336 9.07L21.9716 10.192C21.6416 9.91333 21.3043 9.71167 20.9596 9.587C20.6149 9.455 20.2446 9.389 19.8486 9.389C19.0639 9.389 18.4663 9.62733 18.0556 10.104C17.6449 10.5733 17.4396 11.2443 17.4396 12.117C17.4396 12.9897 17.6449 13.6643 18.0556 14.141C18.4663 14.6177 19.0639 14.856 19.8486 14.856C20.2446 14.856 20.6149 14.7937 20.9596 14.669C21.3043 14.537 21.6416 14.3317 21.9716 14.053L22.4336 15.175C22.1329 15.4683 21.7479 15.6993 21.2786 15.868C20.8166 16.0293 20.3253 16.11 19.8046 16.11ZM23.5304 16V8.245H24.9054V11.402C25.0888 11.1087 25.3344 10.8887 25.6424 10.742C25.9504 10.588 26.2914 10.511 26.6654 10.511C27.9341 10.511 28.5684 11.248 28.5684 12.722V16H27.1934V12.788C27.1934 12.37 27.1128 12.0657 26.9514 11.875C26.7974 11.6843 26.5554 11.589 26.2254 11.589C25.8221 11.589 25.4994 11.7173 25.2574 11.974C25.0228 12.2233 24.9054 12.557 24.9054 12.975V16H23.5304ZM31.736 16.11C31.3473 16.11 30.999 16.0367 30.691 15.89C30.3903 15.736 30.152 15.5307 29.976 15.274C29.8073 15.0173 29.723 14.7277 29.723 14.405C29.723 14.009 29.8257 13.6973 30.031 13.47C30.2363 13.2353 30.57 13.0667 31.032 12.964C31.494 12.8613 32.1137 12.81 32.891 12.81H33.276V12.579C33.276 12.2123 33.1953 11.9483 33.034 11.787C32.8727 11.6257 32.6013 11.545 32.22 11.545C31.9193 11.545 31.6113 11.5927 31.296 11.688C30.9807 11.776 30.6617 11.9153 30.339 12.106L29.943 11.171C30.1337 11.039 30.3573 10.9253 30.614 10.83C30.878 10.7273 31.153 10.6503 31.439 10.599C31.7323 10.5403 32.0073 10.511 32.264 10.511C33.0487 10.511 33.6317 10.6943 34.013 11.061C34.3943 11.4203 34.585 11.9813 34.585 12.744V16H33.298V15.142C33.1733 15.4427 32.9753 15.681 32.704 15.857C32.4327 16.0257 32.11 16.11 31.736 16.11ZM32.022 15.164C32.3813 15.164 32.6783 15.0393 32.913 14.79C33.155 14.5407 33.276 14.2253 33.276 13.844V13.602H32.902C32.2127 13.602 31.7323 13.657 31.461 13.767C31.197 13.8697 31.065 14.0603 31.065 14.339C31.065 14.581 31.1493 14.779 31.318 14.933C31.4867 15.087 31.7213 15.164 32.022 15.164ZM38.4446 16.11C37.022 16.11 36.3106 15.406 36.3106 13.998V11.655H35.2766V10.621H36.3106V9.015H37.6856V10.621H39.3136V11.655H37.6856V13.921C37.6856 14.273 37.7626 14.537 37.9166 14.713C38.0706 14.889 38.32 14.977 38.6646 14.977C38.7673 14.977 38.8736 14.966 38.9836 14.944C39.0936 14.9147 39.2073 14.8853 39.3246 14.856L39.5336 15.868C39.4016 15.9413 39.233 16 39.0276 16.044C38.8296 16.088 38.6353 16.11 38.4446 16.11ZM42.0723 16.11C41.4343 16.11 40.9613 15.9377 40.6533 15.593C40.3526 15.241 40.2023 14.7277 40.2023 14.053V8.245H41.5773V13.987C41.5773 14.647 41.856 14.977 42.4133 14.977C42.494 14.977 42.5746 14.9733 42.6553 14.966C42.736 14.9587 42.813 14.944 42.8863 14.922L42.8643 16.011C42.6003 16.077 42.3363 16.11 42.0723 16.11ZM44.0594 17.98L45.0494 15.78L42.8164 10.621H44.2794L45.7864 14.383L47.3264 10.621H48.7124L45.4784 17.98H44.0594Z" fill="white"/>
</svg>
